<?xml version="1.0" encoding="utf-8"?>
<!-- Generator: Adobe Illustrator 16.0.0, SVG Export Plug-In . SVG Version: 6.00 Build 0)  -->
<!DOCTYPE svg PUBLIC "-//W3C//DTD SVG 1.1//EN" "http://www.w3.org/Graphics/SVG/1.1/DTD/svg11.dtd">
<svg version="1.1" xmlns="http://www.w3.org/2000/svg" x="0px" y="0px" width="40px"
	 height="40px" viewBox="0 0 40 40" enable-background="new 0 0 40 40" xml:space="preserve">
<g id="Layer_2">
	<path fill="#FFBF97" stroke="#DBBFB2" stroke-width="0.1" stroke-linecap="round" stroke-linejoin="round" d="M12.555,18.207
		c0,0,2.951-2.021,8.182-1.878c3.675,0.101,6.835,2.073,6.835,2.073c-0.25,2.959-2.202,14.54-5.833,14.501
		c-4.484-0.046-5.265-0.985-6.792-4.899C13.805,25.059,12.697,21.39,12.555,18.207"/>
</g>
<g id="Layer_1">
	<title>Untitled 5</title>
	<desc>Drawing exported from Concepts: Smarter Sketching</desc>
	<g id="Pen">
		
			<linearGradient id="STROKE_1fe30371-465c-4ae0-91fb-b9667cb293a5_1_" gradientUnits="userSpaceOnUse" x1="6.9998" y1="11.8293" x2="7.0032" y2="11.8293">
			<stop  offset="0" style="stop-color:#0F0500"/>
			<stop  offset="0.1559" style="stop-color:#391300"/>
			<stop  offset="0.4355" style="stop-color:#0F0500"/>
			<stop  offset="0.7688" style="stop-color:#260D00"/>
			<stop  offset="1" style="stop-color:#000000"/>
		</linearGradient>
		<path id="STROKE_1fe30371-465c-4ae0-91fb-b9667cb293a5" fill="url(#STROKE_1fe30371-465c-4ae0-91fb-b9667cb293a5_1_)" d="
			M7.003,11.835L7,11.823"/>
		
			<linearGradient id="STROKE_34424a7c-adea-49ae-ad29-074da5266319_2_" gradientUnits="userSpaceOnUse" x1="9.0125" y1="10.2517" x2="29.9944" y2="10.2517">
			<stop  offset="0" style="stop-color:#0F0500"/>
			<stop  offset="0.1559" style="stop-color:#391300"/>
			<stop  offset="0.4355" style="stop-color:#0F0500"/>
			<stop  offset="0.7688" style="stop-color:#260D00"/>
			<stop  offset="1" style="stop-color:#000000"/>
		</linearGradient>
		<path id="STROKE_34424a7c-adea-49ae-ad29-074da5266319" fill="url(#STROKE_34424a7c-adea-49ae-ad29-074da5266319_2_)" d="
			M27.686,18.503L27.686,18.503c1.682-4.967,2.308-14.961,2.308-14.961C23.277,0.948,13.807,2.001,9.029,3.963l0,0
			c-0.201,4.624,1.51,10.123,3.427,14.277C12.455,18.24,20.486,13.911,27.686,18.503z"/>
		
			<linearGradient id="STROKE_fb1cf43c-cd4a-466c-b9c0-19968f8a9163_1_" gradientUnits="userSpaceOnUse" x1="8.0959" y1="23.2971" x2="20.8875" y2="23.2971">
			<stop  offset="0" style="stop-color:#0F0500"/>
			<stop  offset="0.1559" style="stop-color:#391300"/>
			<stop  offset="0.4355" style="stop-color:#0F0500"/>
			<stop  offset="0.7688" style="stop-color:#260D00"/>
			<stop  offset="1" style="stop-color:#000000"/>
		</linearGradient>
		<path id="STROKE_fb1cf43c-cd4a-466c-b9c0-19968f8a9163" fill="url(#STROKE_fb1cf43c-cd4a-466c-b9c0-19968f8a9163_1_)" d="
			M18.935,16.387c-1.634,0.442-3.056,0.996-4.198,2.116c-0.978,0.958-0.852,2.29-2.204,2.976c-1.61,0.815-3.256,0.765-4.009,2.68
			c-0.629,1.597-0.436,3.873-0.231,6.065c0.528-4.166,0.349-6.114,4.752-7.644c1.58-0.555,1.753-2.218,2.624-3.427
			c1.207-1.676,3.336-2.253,5.218-2.784"/>
		
			<linearGradient id="STROKE_58b3c5fe-b4a2-42f8-b671-8344036ad0bf_1_" gradientUnits="userSpaceOnUse" x1="12.303" y1="31.8997" x2="28.3181" y2="31.8997">
			<stop  offset="0" style="stop-color:#0F0500"/>
			<stop  offset="0.1559" style="stop-color:#391300"/>
			<stop  offset="0.4355" style="stop-color:#0F0500"/>
			<stop  offset="0.7688" style="stop-color:#260D00"/>
			<stop  offset="1" style="stop-color:#000000"/>
		</linearGradient>
		<path id="STROKE_58b3c5fe-b4a2-42f8-b671-8344036ad0bf" fill="url(#STROKE_58b3c5fe-b4a2-42f8-b671-8344036ad0bf_1_)" d="
			M20.118,28.153c-5.735-0.05-6.465,4.59-7.8,8.836l0,0c-0.099-2.38,0.28-5.595,1.401-7.704c1.675-3.152,3.37-2.053,6.229-2.214
			c2.403-0.136,4.31-1.13,5.785,1.796c1.389,2.75,2.37,5.39,2.585,8.134C28.318,37.001,25.668,28.201,20.118,28.153z"/>
	</g>
</g>
<g id="Layer_4">
	
		<linearGradient id="STROKE_34424a7c-adea-49ae-ad29-074da5266319_3_" gradientUnits="userSpaceOnUse" x1="9.0125" y1="10.2517" x2="29.9949" y2="10.2517">
		<stop  offset="0" style="stop-color:#2F2920"/>
		<stop  offset="1" style="stop-color:#000000"/>
	</linearGradient>
	<path id="STROKE_34424a7c-adea-49ae-ad29-074da5266319_1_" fill="url(#STROKE_34424a7c-adea-49ae-ad29-074da5266319_3_)" d="
		M27.686,18.503L27.686,18.503c1.682-4.967,2.309-14.961,2.309-14.961C23.277,0.948,13.807,2.001,9.029,3.963l0,0
		c-0.201,4.624,1.51,10.123,3.427,14.277C12.455,18.24,20.462,13.827,27.686,18.503z"/>
</g>
<g id="Layer_3">
	
		<radialGradient id="STROKE_83800013-92d9-4bd1-96e0-24f324e8f19e_1_" cx="19.6868" cy="10.8806" r="1.4733" fx="21.1542" fy="10.7487">
		<stop  offset="0" style="stop-color:#FFFFFF"/>
		<stop  offset="0.4677" style="stop-color:#D33535"/>
		<stop  offset="1" style="stop-color:#C70000"/>
	</radialGradient>
	
		<path id="STROKE_83800013-92d9-4bd1-96e0-24f324e8f19e" fill="url(#STROKE_83800013-92d9-4bd1-96e0-24f324e8f19e_1_)" stroke="#FFE9DF" stroke-width="0.2" stroke-linecap="round" stroke-linejoin="round" d="
		M18.852,9.987c1.211-1.132,2.694,0.868,1.635,2.501C19.406,14.156,17.489,11.441,18.852,9.987L18.852,9.987z"/>
</g>
</svg>
